 <svg version="1.0" xmlns="http://www.w3.org/2000/svg"  width="300.000000pt" height="300.000000pt" viewBox="0 0 300.000000 300.000000"  preserveAspectRatio="xMidYMid meet">  <g transform="translate(0.000000,300.000000) scale(0.100000,-0.100000)" fill="#000000" stroke="none"> <path d="M892 2028 c3 -7 23 -16 45 -21 22 -4 51 -19 64 -33 l24 -26 0 -426 c0 -412 -1 -428 -20 -462 -16 -27 -32 -38 -68 -48 -26 -7 -47 -19 -47 -25 0 -9 47 -12 180 -12 129 0 180 3 180 12 0 6 -23 16 -50 23 -59 14 -86 44 -95 103 -3 23 -5 196 -3 384 l3 342 190 -424 c104 -234 192 -425 196 -425 5 0 53 110 286 660 41 96 79 179 84 184 5 6 9 -95 9 -257 l0 -267 -47 -24 c-27 -13 -64 -42 -84 -63 -36 -37 -85 -121 -76 -129 2 -3 10 9 17 26 18 45 112 125 166 144 26 9 76 16 111 16 l63 0 -3 333 c-2 380 -3 379 75 394 23 5 43 14 46 21 3 9 -29 12 -131 12 l-135 0 -150 -352 c-83 -194 -158 -372 -167 -395 -10 -24 -20 -43 -24 -43 -3 0 -85 177 -181 393 l-175 392 -143 3 c-112 2 -143 0 -140 -10z"/> <path d="M1900 1140 c0 -40 4 -70 10 -70 6 0 10 14 10 30 0 28 3 30 35 30 32 0 35 -2 35 -30 0 -16 5 -30 10 -30 6 0 10 30 10 70 0 40 -4 70 -10 70 -5 0 -10 -13 -10 -30 0 -28 -3 -30 -35 -30 -32 0 -35 2 -35 30 0 17 -4 30 -10 30 -6 0 -10 -30 -10 -70z"/> </g> </svg> 